<svg width="50" height="54" viewBox="0 0 50 54" fill="none" xmlns="http://www.w3.org/2000/svg">
<g clip-path="url(#clip0)">
<path d="M49.4845 45.9909H44.3292V40.516C44.3292 40.2149 44.0972 39.9685 43.8137 39.9685H40.7205C40.4369 39.9685 40.205 40.2149 40.205 40.516V45.9909H35.0497C34.7661 45.9909 34.5341 46.2373 34.5341 46.5384V49.8234C34.5341 50.1245 34.7661 50.3709 35.0497 50.3709H40.205V55.8458C40.205 56.1469 40.4369 56.3933 40.7205 56.3933H43.8137C44.0972 56.3933 44.3292 56.1469 44.3292 55.8458V50.3709H49.4845C49.768 50.3709 50 50.1245 50 49.8234V46.5384C50 46.2373 49.768 45.9909 49.4845 45.9909ZM16.0718 27.2667C16.0138 26.6713 15.9816 26.0691 15.9816 25.46C15.9816 24.3718 16.0782 23.3111 16.2586 22.2777C16.3038 22.0313 16.1813 21.7781 15.9687 21.6754C15.0923 21.258 14.2867 20.6831 13.5908 19.9577C12.7707 19.1132 12.1254 18.0965 11.696 16.9724C11.2666 15.8482 11.0626 14.6414 11.0969 13.4288C11.1549 11.232 11.9862 9.14472 13.4361 7.57068C15.0278 5.83924 17.1673 4.89482 19.442 4.92219C21.4977 4.94272 23.4825 5.78449 24.984 7.27641C25.4931 7.78284 25.9313 8.34402 26.2986 8.94626C26.4275 9.15841 26.6788 9.24738 26.8979 9.16525C28.032 8.74779 29.2306 8.45351 30.4615 8.31664C30.8223 8.27558 31.0285 7.86496 30.8674 7.52278C28.7731 3.12231 24.4942 0.0837296 19.5451 0.00160577C12.4051 -0.114736 6.45071 6.10614 6.45071 13.6889C6.45071 17.9867 8.31306 21.8192 11.2322 24.3308C9.18302 25.3368 7.29489 26.7261 5.65809 28.4643C2.12672 32.2078 0.129043 37.1489 0.000161136 42.4254C-0.00155883 42.4984 0.0105052 42.5711 0.0356418 42.6391C0.0607784 42.7071 0.0984792 42.7691 0.146523 42.8214C0.194566 42.8737 0.251981 42.9153 0.315383 42.9436C0.378785 42.972 0.446892 42.9866 0.51569 42.9866H4.13083C4.40793 42.9866 4.63992 42.7539 4.64636 42.4596C4.7688 38.4903 6.28317 34.7742 8.94458 31.9546C10.8392 29.9426 13.159 28.5465 15.6916 27.869C15.9364 27.7937 16.104 27.5405 16.0718 27.2667ZM45.1025 25.46C45.1025 17.973 39.4381 11.889 32.414 11.7727C25.274 11.6563 19.326 17.8772 19.326 25.46C19.326 29.7578 21.1948 33.5902 24.1076 36.1019C22.0371 37.1211 20.1523 38.5204 18.5399 40.2354C15.0085 43.9789 13.0108 48.92 12.8819 54.1896C12.8802 54.2627 12.8923 54.3353 12.9174 54.4034C12.9426 54.4714 12.9803 54.5333 13.0283 54.5856C13.0763 54.6379 13.1338 54.6795 13.1972 54.7079C13.2606 54.7362 13.3287 54.7508 13.3975 54.7508H17.0062C17.2833 54.7508 17.5152 54.5181 17.5217 54.2238C17.6441 50.2545 19.1585 46.5384 21.8199 43.7188C24.5973 40.7692 28.2834 39.1473 32.2143 39.1473C39.3286 39.1473 45.1025 33.0222 45.1025 25.46ZM38.0462 31.6535C36.4867 33.3097 34.4181 34.2199 32.2143 34.2199C30.0104 34.2199 27.9418 33.3097 26.3823 31.6535C25.6041 30.8314 24.9893 29.8517 24.5742 28.7725C24.1591 27.6933 23.9522 26.5367 23.9658 25.371C23.9851 23.1263 24.8293 20.9569 26.305 19.3486C27.8516 17.6651 29.9202 16.7275 32.1305 16.7001C34.315 16.6796 36.4352 17.5829 37.9946 19.2049C39.5928 20.8679 40.4692 23.0921 40.4692 25.46C40.4627 27.8005 39.6057 29.9973 38.0462 31.6535Z" fill="#3E00C2"/>
</g>
<defs>
<clipPath id="clip0">
<rect width="50" height="53.1" fill="white"/>
</clipPath>
</defs>
</svg>
