<svg width="75" height="75" viewBox="0 0 75 75" fill="none" xmlns="http://www.w3.org/2000/svg">
<path d="M63.2812 9.375H2.34375V56.25H63.2812V9.375ZM58.5938 51.5625H7.03125V14.0625H58.5938V51.5625Z" fill="#3E00C2"/>
<path d="M67.9688 21.0938V60.9375H14.0625V65.625H72.6562V21.0938H67.9688Z" fill="#3E00C2"/>
<path d="M32.8125 44.3057C38.6279 44.3057 43.3594 39.1587 43.3594 32.8322C43.3594 26.5057 38.6279 21.3586 32.8125 21.3586C26.9971 21.3586 22.2656 26.5055 22.2656 32.8322C22.2656 39.1589 26.9971 44.3057 32.8125 44.3057ZM32.8125 26.0461C36.0434 26.0461 38.6719 29.0904 38.6719 32.8322C38.6719 36.574 36.0434 39.6182 32.8125 39.6182C29.5816 39.6182 26.9531 36.574 26.9531 32.8322C26.9531 29.0904 29.5816 26.0461 32.8125 26.0461Z" fill="#3E00C2"/>
<path d="M11.7188 19.9219H16.4062V45.7031H11.7188V19.9219Z" fill="#3E00C2"/>
<path d="M49.2188 19.9219H53.9062V45.7031H49.2188V19.9219Z" fill="#3E00C2"/>
</svg>
