<svg width="50" height="50" viewBox="0 0 50 50" fill="none" xmlns="http://www.w3.org/2000/svg">
<g clip-path="url(#clip0)">
<path d="M49.4845 43.306H44.3292V38.1507C44.3292 37.8671 44.0972 37.6351 43.8137 37.6351H40.7205C40.4369 37.6351 40.205 37.8671 40.205 38.1507V43.306H35.0497C34.7661 43.306 34.5341 43.538 34.5341 43.8215V46.9147C34.5341 47.1982 34.7661 47.4302 35.0497 47.4302H40.205V52.5855C40.205 52.869 40.4369 53.101 40.7205 53.101H43.8137C44.0972 53.101 44.3292 52.869 44.3292 52.5855V47.4302H49.4845C49.768 47.4302 50 47.1982 50 46.9147V43.8215C50 43.538 49.768 43.306 49.4845 43.306ZM16.0718 25.6749C16.0138 25.1142 15.9816 24.5471 15.9816 23.9736C15.9816 22.949 16.0782 21.9502 16.2586 20.9771C16.3038 20.7451 16.1813 20.5067 15.9687 20.41C15.0923 20.0169 14.2867 19.4756 13.5908 18.7926C12.7707 17.9974 12.1254 17.04 11.696 15.9815C11.2666 14.923 11.0626 13.7866 11.0969 12.6449C11.1549 10.5763 11.9862 8.61085 13.4361 7.1287C15.0278 5.49834 17.1673 4.60905 19.442 4.63483C21.4977 4.65416 23.4825 5.44679 24.984 6.85161C25.4931 7.32847 25.9313 7.85689 26.2986 8.42397C26.4275 8.62374 26.6788 8.70751 26.8979 8.63018C28.032 8.23709 29.2306 7.95999 30.4615 7.83111C30.8223 7.79245 31.0285 7.4058 30.8674 7.08359C28.7731 2.94003 24.4942 0.0788414 19.5451 0.00151203C12.4051 -0.108038 6.45071 5.74966 6.45071 12.8897C6.45071 16.9366 8.31306 20.5454 11.2322 22.9103C9.18302 23.8576 7.29489 25.1658 5.65809 26.8026C2.12672 30.3275 0.129043 34.9802 0.000161136 39.9486C-0.00155883 40.0174 0.0105052 40.0858 0.0356418 40.1498C0.0607784 40.2139 0.0984792 40.2722 0.146523 40.3215C0.194566 40.3707 0.251981 40.4099 0.315383 40.4366C0.378785 40.4633 0.446892 40.477 0.51569 40.477H4.13083C4.40793 40.477 4.63992 40.2579 4.64636 39.9808C4.7688 36.2432 6.28317 32.7441 8.94458 30.0891C10.8392 28.1945 13.159 26.8799 15.6916 26.242C15.9364 26.1711 16.104 25.9326 16.0718 25.6749ZM45.1025 23.9736C45.1025 16.9238 39.4381 11.1949 32.414 11.0854C25.274 10.9758 19.326 16.8335 19.326 23.9736C19.326 28.0205 21.1948 31.6292 24.1076 33.9942C22.0371 34.9539 20.1523 36.2716 18.5399 37.8865C15.0085 41.4114 13.0108 46.064 12.8819 51.026C12.8802 51.0948 12.8923 51.1632 12.9174 51.2273C12.9426 51.2913 12.9803 51.3497 13.0283 51.3989C13.0763 51.4482 13.1338 51.4873 13.1972 51.514C13.2606 51.5407 13.3287 51.5545 13.3975 51.5544H17.0062C17.2833 51.5544 17.5152 51.3353 17.5217 51.0582C17.6441 47.3206 19.1585 43.8215 21.8199 41.1665C24.5973 38.3891 28.2834 36.8619 32.2143 36.8619C39.3286 36.8619 45.1025 31.0944 45.1025 23.9736ZM38.0462 29.8055C36.4867 31.365 34.4181 32.2221 32.2143 32.2221C30.0104 32.2221 27.9418 31.365 26.3823 29.8055C25.6041 29.0314 24.9893 28.1089 24.5742 27.0928C24.1591 26.0766 23.9522 24.9874 23.9658 23.8898C23.9851 21.7762 24.8293 19.7334 26.305 18.219C27.8516 16.6338 29.9202 15.7509 32.1305 15.7252C34.315 15.7058 36.4352 16.5564 37.9946 18.0837C39.5928 19.6496 40.4692 21.744 40.4692 23.9736C40.4627 26.1775 39.6057 28.2461 38.0462 29.8055Z" fill="#3F51B5"/>
</g>
<defs>
<clipPath id="clip0">
<rect width="50" height="50" fill="white"/>
</clipPath>
</defs>
</svg>
