<svg width="50" height="50" viewBox="0 0 50 50" fill="none" xmlns="http://www.w3.org/2000/svg">
<g clip-path="url(#clip0)">
<path d="M41.354 39.8781H37.2327C36.4237 39.8781 35.7679 40.534 35.7679 41.343C35.7679 42.152 36.4237 42.8078 37.2327 42.8078H37.3259C33.6515 45.3586 29.2789 46.7065 24.7268 46.6471C19.0501 46.5739 13.7125 44.3224 9.69736 40.3071C8.46357 39.0734 7.39082 37.709 6.49482 36.2359H12.4713C13.2803 36.2359 13.9361 35.5801 13.9361 34.7711V15.3865C13.9361 14.5776 13.2803 13.9217 12.4713 13.9217H1.46484C0.655859 13.9217 0 14.5776 0 15.3865V34.7711C0 35.5801 0.655859 36.2359 1.46484 36.2359H3.14004C4.30303 38.4977 5.81074 40.5638 7.62578 42.3787C12.1843 46.9373 18.244 49.4935 24.6891 49.5766C24.7974 49.5779 24.9051 49.5786 25.0133 49.5786C30.4415 49.5786 35.6265 47.8176 39.8893 44.5644V45.4642C39.8893 46.2732 40.5451 46.929 41.3541 46.929C42.1631 46.929 42.8189 46.2732 42.8189 45.4642V41.3429C42.8188 40.534 42.163 39.8781 41.354 39.8781V39.8781ZM2.92969 16.8514H11.0064V33.3063H2.92969V16.8514Z" fill="#3F51B5"/>
<path d="M48.5351 14.7406H47.3319C46.1172 12.0943 44.4506 9.70042 42.3715 7.62122C37.8438 3.09348 31.8255 0.537818 25.4251 0.425123C19.8445 0.328834 14.4885 2.09241 10.1081 5.43381V4.53557C10.1081 3.72659 9.45223 3.07073 8.64325 3.07073C7.83426 3.07073 7.17841 3.72659 7.17841 4.53557V8.65686C7.17841 9.46585 7.83426 10.1217 8.64325 10.1217H12.7645C13.5735 10.1217 14.2294 9.46585 14.2294 8.65686C14.2294 7.84788 13.5735 7.19202 12.7645 7.19202H12.6706C16.3745 4.62141 20.7879 3.27395 25.3734 3.35422C31.0108 3.45364 36.3118 5.70452 40.2999 9.6926C41.806 11.1988 43.0657 12.8918 44.0607 14.7404H37.5287C36.7197 14.7404 36.0638 15.3962 36.0638 16.2052V34.6132C36.0638 35.4222 36.7197 36.0781 37.5287 36.0781H48.5351C49.3441 36.0781 50 35.4222 50 34.6132V16.2054C50 15.3963 49.3441 14.7406 48.5351 14.7406V14.7406ZM47.0703 33.1486H38.9935V17.6702H47.0703V33.1486Z" fill="#3F51B5"/>
<path d="M26.9588 23.5371C25.6336 23.0686 24.1681 22.5028 23.3462 21.8583C23.0879 21.6557 22.9761 21.1918 23.0681 20.704C23.114 20.4606 23.3282 19.6473 24.1604 19.3966C25.526 18.985 26.463 19.5308 26.8025 19.7846C27.4506 20.2689 28.3684 20.1365 28.8527 19.4884C29.3371 18.8404 29.2045 17.9225 28.5566 17.438C28.249 17.2082 27.4789 16.7043 26.3749 16.4595V15.8633C26.3749 15.0544 25.7191 14.3985 24.9101 14.3985C24.1011 14.3985 23.4452 15.0544 23.4452 15.8633V16.5551C23.402 16.5672 23.359 16.5784 23.3153 16.5916C21.7109 17.0748 20.5131 18.4426 20.1892 20.1614C19.891 21.7434 20.4079 23.2769 21.5383 24.1636C22.4695 24.8939 23.757 25.5126 25.9825 26.2994C27.4642 26.8231 27.432 28.0222 27.3495 28.5134C27.1821 29.5094 26.3442 30.5859 24.9004 30.5954C23.4851 30.6053 23.0433 30.5347 21.9555 29.8232C21.2784 29.3802 20.3706 29.5702 19.9277 30.2471C19.4849 30.9242 19.6747 31.832 20.3517 32.275C21.5249 33.0424 22.3905 33.3538 23.4453 33.4673V34.137C23.4453 34.946 24.1012 35.6018 24.9102 35.6018C25.7191 35.6018 26.375 34.946 26.375 34.137V33.3266C27.182 33.1044 27.9175 32.6986 28.546 32.121C29.4366 31.3027 30.0378 30.1941 30.2387 28.9992C30.6469 26.5698 29.3288 24.3749 26.9588 23.5371V23.5371Z" fill="#3F51B5"/>
</g>
<defs>
<clipPath id="clip0">
<rect width="50" height="50" fill="white"/>
</clipPath>
</defs>
</svg>
