<svg width="50" height="50" viewBox="0 0 50 50" fill="none" xmlns="http://www.w3.org/2000/svg">
<path d="M43.75 22.9167H37.5V8.33333C37.5 7.7808 37.2805 7.25089 36.8898 6.86019C36.4991 6.46949 35.9692 6.25 35.4167 6.25H6.25002C5.69749 6.25 5.16758 6.46949 4.77688 6.86019C4.38618 7.25089 4.16669 7.7808 4.16669 8.33333V37.5C4.16669 40.9458 6.97085 43.75 10.4167 43.75H39.5834C43.0292 43.75 45.8334 40.9458 45.8334 37.5V25C45.8334 24.4475 45.6139 23.9176 45.2232 23.5269C44.8325 23.1362 44.3026 22.9167 43.75 22.9167ZM10.4167 39.5833C9.86415 39.5833 9.33425 39.3638 8.94355 38.9731C8.55285 38.5824 8.33335 38.0525 8.33335 37.5V10.4167H33.3334V37.5C33.3334 38.2312 33.4604 38.9333 33.6896 39.5833H10.4167ZM41.6667 37.5C41.6667 38.0525 41.4472 38.5824 41.0565 38.9731C40.6658 39.3638 40.1359 39.5833 39.5834 39.5833C39.0308 39.5833 38.5009 39.3638 38.1102 38.9731C37.7195 38.5824 37.5 38.0525 37.5 37.5V27.0833H41.6667V37.5Z" fill="#3F51B5"/>
<path d="M12.5 14.5833H29.1667V18.75H12.5V14.5833ZM12.5 22.9167H29.1667V27.0833H12.5V22.9167ZM22.9167 31.25H29.1667V35.4167H22.9167V31.25Z" fill="#3F51B5"/>
</svg>
