<svg width="151" height="144" viewBox="0 0 151 144" fill="none" xmlns="http://www.w3.org/2000/svg">
<path d="M150.411 59.66C149.631 58.37 146.931 59.18 144.801 60.5C144.144 60.9274 143.54 61.4309 143.001 62C142.367 61.4656 141.684 60.9934 140.961 60.59C139.932 60.0088 138.819 59.5937 137.661 59.36C136.131 59.12 135.561 59.57 135.321 60.02C135.081 60.47 135.021 61.19 136.041 62.33C136.846 63.1894 137.789 63.9092 138.831 64.46C139.976 65.1191 141.24 65.5472 142.551 65.72H143.061C144.541 65.5795 145.963 65.0745 147.201 64.25C148.23 63.6579 149.153 62.8974 149.931 62C150.741 60.83 150.651 60.08 150.411 59.66ZM136.731 61.52C136.161 60.86 136.131 60.53 136.161 60.5C136.191 60.47 136.161 60.5 136.731 60.5C136.93 60.4758 137.131 60.4758 137.331 60.5C138.386 60.6974 139.401 61.0727 140.331 61.61C140.962 61.9609 141.564 62.3622 142.131 62.81V62.81V63.41C141.427 63.1787 140.745 62.8876 140.091 62.54C138.919 62.4042 137.78 62.0587 136.731 61.52V61.52ZM149.001 61.28C148.301 62.0648 147.481 62.7332 146.571 63.26C145.939 63.6622 145.265 63.9941 144.561 64.25V63.68C145.089 63.2057 145.661 62.7837 146.271 62.42C148.581 61.04 150.171 60.98 150.321 61.19C150.471 61.4 149.451 60.62 149.001 61.28Z" fill="#ADB2CA"/>
<path d="M21.4112 107C20.6312 105.71 17.9612 106.52 15.8012 107.81C15.1149 108.236 14.4719 108.729 13.8812 109.28C13.2423 108.739 12.5485 108.266 11.8112 107.87C10.7828 107.289 9.66909 106.874 8.51121 106.64C7.01121 106.4 6.41121 106.85 6.17121 107.27C5.93121 107.69 5.87121 108.47 6.89121 109.61C7.723 110.445 8.6732 111.152 9.71121 111.71C10.8432 112.381 12.0977 112.819 13.4012 113H14.0012C15.4815 112.859 16.9038 112.354 18.1412 111.53C19.1574 110.919 20.0774 110.161 20.8712 109.28C21.7712 108.05 21.6812 107.3 21.4112 107ZM7.73121 108.83C7.16121 108.2 7.16121 107.87 7.19121 107.84C7.22121 107.81 7.34121 107.84 7.73121 107.84H8.33121C9.3858 108.041 10.3996 108.416 11.3312 108.95C11.9723 109.296 12.5755 109.709 13.1312 110.18V110.18V110.6C12.4145 110.366 11.7214 110.064 11.0612 109.7C9.90289 109.562 8.77665 109.227 7.73121 108.71V108.83ZM20.0012 108.5C19.3083 109.292 18.4867 109.961 17.5712 110.48C16.9459 110.875 16.2826 111.207 15.5912 111.47V111.08V110.9C16.1191 110.426 16.6918 110.004 17.3012 109.64C19.5812 108.23 21.2012 108.17 21.3512 108.41C21.5012 108.65 20.4812 107.84 20.0012 108.5Z" fill="#ADB2CA"/>
<path d="M116 95.81H114.74C114.629 95.81 114.522 95.7658 114.443 95.687C114.365 95.6083 114.32 95.5014 114.32 95.39C114.32 95.3323 114.332 95.2751 114.355 95.2221C114.378 95.169 114.411 95.1213 114.454 95.0819C114.496 95.0425 114.546 95.0122 114.6 94.993C114.655 94.9737 114.713 94.9659 114.77 94.97C115.52 94.97 116.27 94.97 116.99 94.97C117.045 94.97 117.1 94.9809 117.151 95.002C117.202 95.0231 117.248 95.054 117.287 95.093C117.326 95.132 117.357 95.1783 117.378 95.2293C117.399 95.2803 117.41 95.3349 117.41 95.39C117.411 95.5044 117.367 95.6145 117.289 95.6981C117.211 95.7817 117.104 95.8324 116.99 95.84L116 95.81ZM121.52 95.36C121.422 95.3507 121.328 95.3111 121.253 95.2466C121.178 95.1822 121.125 95.096 121.1 95C121.092 94.9448 121.094 94.8884 121.108 94.8342C121.122 94.78 121.146 94.7291 121.179 94.6844C121.213 94.6397 121.255 94.6021 121.303 94.5739C121.352 94.5457 121.405 94.5274 121.46 94.52C122.21 94.52 122.93 94.22 123.65 94.04C123.761 94.0214 123.875 94.0449 123.969 94.106C124.064 94.1671 124.132 94.2613 124.16 94.37C124.188 94.4774 124.172 94.5913 124.115 94.6868C124.059 94.7824 123.967 94.8518 123.86 94.88L121.61 95.36H121.52ZM110.21 95.36L108.02 95C107.964 94.9894 107.911 94.9676 107.864 94.9359C107.817 94.9042 107.777 94.8633 107.746 94.8156C107.715 94.7679 107.695 94.7145 107.685 94.6586C107.675 94.6026 107.677 94.5453 107.69 94.49C107.701 94.4343 107.723 94.3812 107.754 94.3341C107.786 94.287 107.827 94.2468 107.875 94.216C107.922 94.1851 107.976 94.1643 108.032 94.1546C108.088 94.145 108.145 94.1469 108.2 94.16L110.39 94.58C110.447 94.5829 110.503 94.5983 110.554 94.6252C110.605 94.652 110.649 94.6897 110.683 94.7355C110.717 94.7814 110.741 94.8342 110.753 94.8903C110.764 94.9464 110.764 95.0043 110.75 95.06C110.724 95.1496 110.668 95.2278 110.592 95.2822C110.516 95.3365 110.424 95.3639 110.33 95.36H110.21ZM103.61 93.74C102.89 93.5 102.17 93.26 101.45 92.96C101.347 92.9198 101.264 92.8405 101.219 92.7394C101.174 92.6383 101.171 92.5235 101.21 92.42C101.257 92.3148 101.342 92.2312 101.448 92.1866C101.554 92.142 101.673 92.1396 101.78 92.18C102.47 92.45 103.19 92.72 103.88 92.93C103.992 92.93 104.099 92.9743 104.177 93.053C104.256 93.1318 104.3 93.2386 104.3 93.35C104.3 93.4614 104.256 93.5683 104.177 93.647C104.099 93.7258 103.992 93.77 103.88 93.77L103.61 93.74ZM128.06 93.44C127.978 93.4463 127.896 93.4264 127.826 93.3833C127.756 93.3402 127.702 93.2761 127.67 93.2C127.645 93.149 127.631 93.0935 127.628 93.0368C127.625 92.9801 127.634 92.9234 127.653 92.8701C127.673 92.8168 127.703 92.7681 127.742 92.7268C127.781 92.6856 127.828 92.6526 127.88 92.63C128.567 92.336 129.238 92.0056 129.89 91.64C129.99 91.5843 130.107 91.5704 130.217 91.6014C130.327 91.6323 130.42 91.7056 130.475 91.805C130.531 91.9045 130.545 92.022 130.514 92.1317C130.483 92.2414 130.41 92.3343 130.31 92.39C129.62 92.75 128.93 93.11 128.24 93.41L128.06 93.44ZM97.3403 91.07H97.1303L95.1203 89.93C95.0486 89.8524 95.0088 89.7507 95.0088 89.645C95.0088 89.5394 95.0486 89.4376 95.1203 89.36C95.1568 89.321 95.2009 89.2898 95.2499 89.2685C95.299 89.2472 95.3518 89.2363 95.4053 89.2363C95.4587 89.2363 95.5116 89.2472 95.5606 89.2685C95.6097 89.2898 95.6538 89.321 95.6903 89.36C96.3203 89.75 96.9803 90.11 97.6403 90.47C97.6898 90.4954 97.7338 90.5303 97.7697 90.5727C97.8056 90.6152 97.8327 90.6644 97.8494 90.7174C97.8662 90.7704 97.8722 90.8263 97.8672 90.8816C97.8622 90.937 97.8462 90.9909 97.8203 91.04C97.7682 91.0763 97.7075 91.0982 97.6443 91.1035C97.5811 91.1087 97.5176 91.0972 97.4603 91.07H97.3403ZM134 89.9C133.894 89.939 133.777 89.939 133.67 89.9C133.63 89.8609 133.599 89.8142 133.577 89.7627C133.555 89.7112 133.544 89.6559 133.544 89.6C133.544 89.5442 133.555 89.4888 133.577 89.4373C133.599 89.3858 133.63 89.3391 133.67 89.3C134.24 88.82 134.78 88.31 135.32 87.8C135.357 87.756 135.403 87.7205 135.455 87.6962C135.506 87.6718 135.563 87.6592 135.62 87.6592C135.678 87.6592 135.734 87.6718 135.786 87.6962C135.838 87.7205 135.884 87.756 135.92 87.8C135.994 87.8825 136.035 87.9893 136.035 88.1C136.035 88.2107 135.994 88.3175 135.92 88.4C135.379 88.9511 134.809 89.4719 134.21 89.96L134 89.9ZM138.53 84.86C138.453 84.8902 138.367 84.8902 138.29 84.86C138.251 84.8235 138.22 84.7794 138.199 84.7304C138.177 84.6814 138.167 84.6285 138.167 84.575C138.167 84.5216 138.177 84.4687 138.199 84.4197C138.22 84.3706 138.251 84.3265 138.29 84.29C138.68 83.66 139.07 83.03 139.43 82.37C139.482 82.2706 139.571 82.1957 139.678 82.162C139.785 82.1282 139.901 82.1383 140 82.19C140.1 82.2417 140.175 82.3309 140.208 82.4377C140.242 82.5446 140.232 82.6606 140.18 82.76C139.826 83.4404 139.435 84.1014 139.01 84.74C138.944 84.8043 138.862 84.8494 138.772 84.8705C138.682 84.8917 138.588 84.888 138.5 84.86H138.53ZM141.53 78.86C141.474 78.8473 141.421 78.8222 141.376 78.7866C141.33 78.751 141.293 78.7057 141.267 78.654C141.241 78.6023 141.227 78.5456 141.226 78.4878C141.225 78.43 141.237 78.3727 141.26 78.32C141.47 77.63 141.71 76.91 141.89 76.16C141.918 76.0529 141.988 75.9612 142.083 75.905C142.179 75.8488 142.293 75.8326 142.4 75.86C142.507 75.8883 142.599 75.9577 142.655 76.0532C142.712 76.1488 142.728 76.2626 142.7 76.37C142.52 77.15 142.31 77.87 142.07 78.59C142.04 78.6421 141.999 78.6874 141.95 78.7232C141.901 78.7591 141.846 78.7848 141.787 78.7988C141.728 78.8128 141.667 78.8148 141.608 78.8047C141.548 78.7946 141.491 78.7726 141.44 78.74L141.53 78.86ZM143 72.08C142.946 72.0765 142.893 72.0618 142.845 72.0367C142.797 72.0116 142.755 71.9768 142.721 71.9345C142.687 71.8921 142.662 71.8432 142.649 71.7908C142.635 71.7383 142.632 71.6836 142.64 71.63C142.64 70.88 142.64 70.13 142.82 69.38C142.824 69.3248 142.839 69.2709 142.863 69.2214C142.888 69.1719 142.922 69.1277 142.964 69.0915C143.006 69.0553 143.055 69.0276 143.107 69.0102C143.16 68.9928 143.215 68.986 143.27 68.99C143.384 68.9977 143.491 69.0484 143.569 69.132C143.647 69.2156 143.691 69.3257 143.69 69.44C143.69 70.19 143.69 70.97 143.48 71.72C143.473 71.7754 143.455 71.8288 143.426 71.877C143.398 71.9253 143.361 71.9674 143.316 72.0009C143.271 72.0344 143.22 72.0587 143.166 72.0723C143.112 72.0859 143.056 72.0885 143 72.08V72.08Z" fill="#ADB2CA"/>
<path d="M20.3607 122C19.5722 121.894 18.8039 121.672 18.0807 121.34C17.9808 121.288 17.9039 121.201 17.865 121.096C17.8261 120.99 17.8282 120.874 17.8707 120.77C17.8933 120.718 17.9262 120.671 17.9675 120.632C18.0088 120.593 18.0575 120.563 18.1108 120.543C18.1641 120.523 18.2208 120.515 18.2775 120.518C18.3342 120.521 18.3897 120.535 18.4407 120.56C19.0894 120.854 19.7761 121.056 20.4807 121.16C20.5348 121.164 20.5876 121.178 20.6357 121.203C20.6838 121.228 20.7261 121.263 20.76 121.306C20.7939 121.348 20.8186 121.397 20.8325 121.449C20.8463 121.502 20.8492 121.556 20.8407 121.61C20.8372 121.668 20.8216 121.725 20.795 121.776C20.7685 121.828 20.7314 121.874 20.6863 121.91C20.6412 121.947 20.589 121.974 20.5329 121.989C20.4769 122.005 20.4182 122.008 20.3607 122V122ZM24.8607 121.58C24.7684 121.579 24.6785 121.55 24.6034 121.496C24.5283 121.443 24.4715 121.367 24.4407 121.28C24.4225 121.225 24.4159 121.167 24.4213 121.109C24.4268 121.051 24.4442 120.995 24.4723 120.944C24.5005 120.893 24.5389 120.849 24.5851 120.814C24.6313 120.779 24.6843 120.754 24.7407 120.74H25.0407C25.6132 120.554 26.1581 120.291 26.6607 119.96C26.6998 119.92 26.7465 119.888 26.798 119.867C26.8495 119.845 26.9048 119.834 26.9607 119.834C27.0166 119.834 27.0719 119.845 27.1234 119.867C27.1749 119.888 27.2216 119.92 27.2607 119.96C27.3345 120.042 27.3753 120.149 27.3753 120.26C27.3753 120.371 27.3345 120.477 27.2607 120.56C26.6947 120.961 26.0662 121.265 25.4007 121.46H25.1007L24.8607 121.58ZM14.8707 118.37C14.8 118.376 14.7291 118.362 14.6657 118.33C14.6022 118.298 14.5487 118.25 14.5107 118.19C14.0635 117.515 13.7197 116.777 13.4907 116C13.4725 115.947 13.466 115.89 13.4717 115.834C13.4774 115.779 13.4951 115.725 13.5236 115.676C13.5521 115.628 13.5907 115.586 13.6368 115.554C13.6829 115.522 13.7354 115.5 13.7907 115.49C13.8981 115.463 14.012 115.479 14.1075 115.535C14.203 115.591 14.2725 115.683 14.3007 115.79C14.5335 116.465 14.8457 117.109 15.2307 117.71C15.3045 117.792 15.3453 117.899 15.3453 118.01C15.3453 118.121 15.3045 118.227 15.2307 118.31L14.8707 118.37ZM29.6307 117.08H29.4507C29.3531 117.034 29.2768 116.953 29.2377 116.852C29.1986 116.751 29.1997 116.64 29.2407 116.54C29.5595 115.874 29.8204 115.181 30.0207 114.47C30.0554 114.361 30.1307 114.268 30.2311 114.213C30.3315 114.157 30.4494 114.142 30.5607 114.17C30.6171 114.184 30.6701 114.209 30.7163 114.244C30.7625 114.279 30.8009 114.324 30.8291 114.374C30.8572 114.425 30.8746 114.481 30.8801 114.539C30.8855 114.597 30.8789 114.655 30.8607 114.71C30.6325 115.449 30.3518 116.171 30.0207 116.87C29.9669 116.914 29.9024 116.942 29.8339 116.953C29.7653 116.964 29.6952 116.956 29.6307 116.93V117.08ZM31.3707 110.51C31.3153 110.503 31.2619 110.484 31.2137 110.456C31.1655 110.428 31.1234 110.39 31.0899 110.346C31.0563 110.301 31.0321 110.25 31.0185 110.196C31.0049 110.142 31.0022 110.085 31.0107 110.03C31.0107 109.31 31.1607 108.56 31.2207 107.78C31.2245 107.725 31.2392 107.671 31.2639 107.621C31.2886 107.572 31.3228 107.528 31.3646 107.491C31.4065 107.455 31.455 107.428 31.5075 107.41C31.5601 107.393 31.6155 107.386 31.6707 107.39C31.7848 107.398 31.8917 107.448 31.9697 107.532C32.0477 107.616 32.0909 107.726 32.0907 107.84C32.0907 108.62 32.0907 109.4 31.8507 110.12C31.8071 110.206 31.7368 110.276 31.6504 110.319C31.5639 110.363 31.4659 110.377 31.3707 110.36V110.51ZM31.7307 103.7C31.6193 103.7 31.5125 103.656 31.4337 103.577C31.3549 103.498 31.3107 103.391 31.3107 103.28C31.3107 102.53 31.3107 101.78 31.3107 101C31.3066 100.946 31.3136 100.892 31.3313 100.842C31.349 100.791 31.3771 100.744 31.4138 100.705C31.4504 100.665 31.4948 100.634 31.5442 100.612C31.5936 100.591 31.6469 100.58 31.7007 100.58C31.7559 100.576 31.8113 100.583 31.8638 100.6C31.9164 100.618 31.9649 100.645 32.0068 100.681C32.0486 100.718 32.0828 100.762 32.1075 100.811C32.1322 100.861 32.1469 100.915 32.1507 100.97C32.1507 101.75 32.1507 102.53 32.1507 103.28C32.1431 103.394 32.0923 103.501 32.0087 103.579C31.9252 103.657 31.815 103.7 31.7007 103.7H31.7307Z" fill="#ADB2CA"/>
<path d="M65.4506 129.08C65.6645 128.806 65.7807 128.468 65.7806 128.12C65.7846 127.894 65.7432 127.67 65.6587 127.461C65.5742 127.252 65.4484 127.061 65.2888 126.902C65.1292 126.742 64.9391 126.616 64.7298 126.532C64.5205 126.447 64.2963 126.406 64.0706 126.41C63.933 125.799 63.5897 125.254 63.0981 124.866C62.6066 124.479 61.9966 124.272 61.3706 124.28C60.9349 124.277 60.5045 124.375 60.1138 124.568C59.7231 124.761 59.3829 125.042 59.1206 125.39C58.7245 125.288 58.3102 125.278 57.9097 125.361C57.5092 125.444 57.1331 125.618 56.8106 125.87C53.8106 125.39 51.9206 125.87 51.2906 127.22L49.6406 130.7C49.4967 130.999 49.4248 131.328 49.4306 131.66C47.817 131.367 46.1806 131.216 44.5406 131.21C39.1106 131.21 33.3506 132.77 33.3506 135.65V139.52C33.3506 142.52 39.1106 143.96 44.5406 143.96C49.9706 143.96 55.7306 142.4 55.7306 139.52V138.38C56.4206 138.77 57.1406 139.16 57.8906 139.49C60.2354 140.652 62.762 141.402 65.3606 141.71H66.3506C68.1806 141.71 69.3506 141.17 69.8906 140.18L71.5406 136.67C72.6206 134.48 69.2606 131.3 65.4506 129.08ZM59.0006 126.59C59.0669 126.625 59.1398 126.646 59.2146 126.651C59.2895 126.656 59.3645 126.646 59.4351 126.62C59.5056 126.595 59.5701 126.555 59.6244 126.503C59.6788 126.452 59.7217 126.389 59.7506 126.32C59.8924 126.043 60.107 125.81 60.3713 125.647C60.6356 125.483 60.9396 125.394 61.2506 125.39C61.683 125.39 62.0982 125.56 62.4068 125.863C62.7154 126.166 62.8927 126.578 62.9006 127.01V127.01C62.8927 127.112 62.914 127.214 62.9618 127.304C63.0095 127.394 63.082 127.469 63.1706 127.52C63.2589 127.565 63.3566 127.588 63.4556 127.588C63.5546 127.588 63.6523 127.565 63.7406 127.52H63.9806C64.0541 127.52 64.1269 127.535 64.1944 127.564C64.262 127.593 64.3229 127.635 64.3734 127.689C64.424 127.742 64.4631 127.805 64.4884 127.874C64.5137 127.943 64.5247 128.017 64.5206 128.09C64.5171 128.202 64.4771 128.309 64.4066 128.396C64.3362 128.483 64.2392 128.544 64.1306 128.57C64.015 128.568 63.9031 128.529 63.8113 128.459C63.7195 128.389 63.6527 128.291 63.6206 128.18C63.5869 128.089 63.5307 128.009 63.4572 127.946C63.3837 127.883 63.2954 127.839 63.2006 127.82C63.0999 127.8 62.9957 127.809 62.9 127.846C62.8044 127.884 62.7213 127.947 62.6606 128.03C62.4298 128.308 62.1139 128.503 61.7616 128.584C61.4093 128.666 61.04 128.629 60.7106 128.48C60.5742 128.425 60.4225 128.423 60.2843 128.472C60.146 128.522 60.0309 128.621 59.9606 128.75C59.8294 129.029 59.6214 129.264 59.361 129.429C59.1006 129.594 58.7987 129.681 58.4906 129.68C58.053 129.68 57.6333 129.506 57.3239 129.197C57.0144 128.887 56.8406 128.468 56.8406 128.03C56.8376 127.755 56.9037 127.483 57.0327 127.239C57.1617 126.996 57.3497 126.789 57.5794 126.637C57.809 126.484 58.0731 126.392 58.3476 126.368C58.622 126.345 58.8981 126.39 59.1506 126.5L59.0006 126.59ZM54.7106 126.83H55.8206C55.6446 127.216 55.5525 127.636 55.5506 128.06C55.5394 128.65 55.7175 129.228 56.0588 129.709C56.4 130.19 56.8864 130.549 57.4467 130.734C58.007 130.918 58.6117 130.918 59.1721 130.734C59.7325 130.55 60.2191 130.191 60.5606 129.71C60.95 129.812 61.3573 129.824 61.7521 129.746C62.1469 129.668 62.519 129.502 62.8406 129.26C63.144 129.562 63.5527 129.734 63.9806 129.74H64.2206C68.7506 132.2 70.9706 135.02 70.4006 136.22C69.8306 137.42 65.2406 137.45 59.9006 134.93C54.5606 132.41 51.5306 129.08 52.1906 127.67C52.5806 127.13 53.5106 126.83 54.8306 126.83H54.7106ZM44.4206 132.35C46.1634 132.344 47.9022 132.515 49.6106 132.86C50.5661 134.557 51.9395 135.983 53.6006 137C50.8271 138.438 47.7206 139.111 44.6006 138.95C38.6006 138.95 34.5206 137.21 34.5206 135.65C34.5206 134.09 38.6006 132.35 44.5406 132.35H44.4206ZM44.4206 142.82C38.4206 142.82 34.3406 141.08 34.3406 139.52V137.69C37.3927 139.461 40.898 140.295 44.4206 140.09C47.935 140.311 51.4352 139.475 54.4706 137.69V139.52C54.5906 141.08 50.4506 142.82 44.5406 142.82H44.4206ZM68.7506 139.82C68.4206 140.51 67.1606 140.81 65.3306 140.66C62.8706 140.339 60.4794 139.619 58.2506 138.53C53.0006 135.95 50.0006 132.62 50.6606 131.18L51.4406 129.53C53.4426 132.422 56.2481 134.665 59.5106 135.98C62.1736 137.319 65.0842 138.096 68.0606 138.26C68.5959 138.265 69.1298 138.204 69.6506 138.08L68.7506 139.82Z" fill="#ADB2CA"/>
<path d="M45.1405 114.59C45.4719 114.59 45.7405 114.321 45.7405 113.99C45.7405 113.659 45.4719 113.39 45.1405 113.39C44.8092 113.39 44.5405 113.659 44.5405 113.99C44.5405 114.321 44.8092 114.59 45.1405 114.59Z" fill="#ADB2CA"/>
<path d="M30.4408 140.63C30.7722 140.63 31.0408 140.361 31.0408 140.03C31.0408 139.699 30.7722 139.43 30.4408 139.43C30.1095 139.43 29.8408 139.699 29.8408 140.03C29.8408 140.361 30.1095 140.63 30.4408 140.63Z" fill="#ADB2CA"/>
<path d="M18.7104 142.4C19.0417 142.4 19.3104 142.131 19.3104 141.8C19.3104 141.469 19.0417 141.2 18.7104 141.2C18.379 141.2 18.1104 141.469 18.1104 141.8C18.1104 142.131 18.379 142.4 18.7104 142.4Z" fill="#ADB2CA"/>
<path d="M97.7299 136.1L95.7199 135.14C95.5844 135.078 95.43 135.072 95.2899 135.122C95.1497 135.173 95.0348 135.276 94.9699 135.41C94.935 135.476 94.9142 135.549 94.909 135.624C94.9038 135.699 94.9142 135.774 94.9396 135.844C94.965 135.915 95.0049 135.98 95.0566 136.034C95.1083 136.088 95.1707 136.131 95.2399 136.16L97.2499 137.12H97.4899C97.6171 137.117 97.7396 137.071 97.8379 136.99C97.9361 136.909 98.0045 136.798 98.0321 136.674C98.0597 136.55 98.045 136.42 97.9902 136.305C97.9354 136.19 97.8438 136.097 97.7299 136.04V136.1Z" fill="#ADB2CA"/>
<path d="M76.0106 138.83C75.892 138.83 75.776 138.865 75.6773 138.931C75.5786 138.997 75.5017 139.091 75.4563 139.2C75.4109 139.31 75.399 139.431 75.4222 139.547C75.4453 139.663 75.5025 139.77 75.5864 139.854C75.6703 139.938 75.7772 139.995 75.8936 140.018C76.01 140.042 76.1306 140.03 76.2403 139.984C76.3499 139.939 76.4436 139.862 76.5095 139.763C76.5755 139.665 76.6106 139.549 76.6106 139.43C76.6106 139.271 76.5474 139.118 76.4349 139.006C76.3224 138.893 76.1698 138.83 76.0106 138.83V138.83Z" fill="#ADB2CA"/>
<path d="M91.1908 136.13C91.0721 136.13 90.9561 136.165 90.8575 136.231C90.7588 136.297 90.6819 136.391 90.6365 136.5C90.5911 136.61 90.5792 136.731 90.6024 136.847C90.6255 136.963 90.6826 137.07 90.7665 137.154C90.8505 137.238 90.9574 137.295 91.0738 137.318C91.1901 137.342 91.3108 137.33 91.4204 137.284C91.5301 137.239 91.6238 137.162 91.6897 137.063C91.7556 136.965 91.7908 136.849 91.7908 136.73C91.7908 136.571 91.7276 136.418 91.6151 136.306C91.5025 136.193 91.3499 136.13 91.1908 136.13Z" fill="#ADB2CA"/>
<path d="M102.171 137C102.155 136.443 101.925 135.913 101.528 135.522C101.131 135.13 100.598 134.908 100.041 134.9V134.9C99.9249 134.457 99.7094 134.047 99.4106 133.7L100.011 132.44C100.046 132.374 100.066 132.301 100.072 132.226C100.077 132.151 100.066 132.076 100.041 132.006C100.015 131.935 99.9757 131.87 99.924 131.816C99.8723 131.762 99.8098 131.719 99.7406 131.69C99.6088 131.626 99.4572 131.615 99.3175 131.66C99.1778 131.704 99.0608 131.801 98.9906 131.93L98.5406 132.89C98.3141 132.719 98.0606 132.587 97.7906 132.5C97.4679 131.923 96.9982 131.441 96.4291 131.104C95.8601 130.767 95.212 130.586 94.5506 130.58C94.0438 130.576 93.5418 130.678 93.0768 130.879C92.6117 131.081 92.1941 131.377 91.8506 131.75H91.6106L92.8406 128.75C92.8748 128.682 92.8942 128.607 92.8974 128.531C92.9006 128.455 92.8876 128.378 92.8592 128.308C92.8309 128.237 92.7878 128.173 92.7329 128.12C92.678 128.067 92.6125 128.026 92.5406 128C92.405 127.949 92.255 127.952 92.1213 128.008C91.9875 128.063 91.88 128.168 91.8206 128.3L90.4106 131.69C90.1514 131.661 89.8898 131.661 89.6306 131.69C89.2638 131.007 88.7186 130.435 88.053 130.037C87.3874 129.639 86.6263 129.429 85.8506 129.429C85.075 129.429 84.3139 129.639 83.6483 130.037C82.9826 130.435 82.4374 131.007 82.0706 131.69L79.4006 128.69C79.295 128.591 79.1555 128.536 79.0106 128.536C78.8657 128.536 78.7263 128.591 78.6206 128.69C78.5195 128.801 78.4633 128.945 78.4633 129.095C78.4633 129.245 78.5195 129.389 78.6206 129.5L81.6206 133.16C80.8524 133.264 80.1375 133.611 79.5806 134.15C79.5658 134.009 79.4992 133.879 79.3939 133.785C79.2885 133.691 79.152 133.639 79.0106 133.64C78.8515 133.64 78.6989 133.703 78.5864 133.816C78.4739 133.928 78.4106 134.081 78.4106 134.24C78.4106 134.399 78.4739 134.552 78.5864 134.664C78.6989 134.777 78.8515 134.84 79.0106 134.84C78.6606 135.39 78.4625 136.022 78.4363 136.674C78.4102 137.325 78.5569 137.971 78.8617 138.547C79.1665 139.124 79.6185 139.609 80.1716 139.953C80.7247 140.298 81.3592 140.49 82.0106 140.51C82.5514 140.512 83.0853 140.389 83.5706 140.15C84.3028 140.504 85.1324 140.601 85.9266 140.427C86.7208 140.253 87.4335 139.817 87.9506 139.19C88.7189 139.849 89.6982 140.211 90.7106 140.21C91.3398 140.199 91.9594 140.054 92.5284 139.785C93.0973 139.516 93.6025 139.129 94.0106 138.65C94.6778 139.246 95.546 139.568 96.4406 139.55C97.2939 139.547 98.12 139.25 98.7806 138.71C99.1347 138.949 99.5533 139.075 99.9806 139.07C100.277 139.071 100.571 139.007 100.84 138.882C101.11 138.758 101.349 138.576 101.541 138.35H101.751C101.854 138.354 101.958 138.337 102.054 138.299C102.151 138.262 102.238 138.204 102.312 138.131C102.385 138.058 102.442 137.97 102.48 137.873C102.518 137.777 102.535 137.674 102.531 137.57C102.517 137.454 102.478 137.343 102.415 137.244C102.353 137.145 102.269 137.062 102.171 137V137ZM100.041 138.02C99.8916 138.025 99.7435 137.995 99.6081 137.932C99.4727 137.87 99.3537 137.776 99.2606 137.66C99.2095 137.597 99.1457 137.546 99.0733 137.51C99.0008 137.474 98.9215 137.453 98.8406 137.45C98.7543 137.446 98.6684 137.464 98.5901 137.5C98.5118 137.537 98.4434 137.592 98.3906 137.66C98.1545 137.93 97.8641 138.147 97.5384 138.297C97.2127 138.446 96.8591 138.526 96.5006 138.53C96.1018 138.529 95.7089 138.433 95.3542 138.251C94.9996 138.068 94.6933 137.804 94.4606 137.48C94.4017 137.411 94.3279 137.356 94.2448 137.32C94.1616 137.283 94.0713 137.266 93.9806 137.27C93.8849 137.273 93.7913 137.3 93.7078 137.347C93.6243 137.394 93.5533 137.46 93.5006 137.54C93.2426 138.038 92.85 138.454 92.3675 138.741C91.8849 139.027 91.3317 139.172 90.7706 139.16C90.3144 139.158 89.8639 139.058 89.4498 138.866C89.0357 138.675 88.6676 138.396 88.3706 138.05C88.309 137.978 88.2293 137.923 88.1398 137.892C88.0503 137.86 87.954 137.853 87.8606 137.87C87.7734 137.875 87.6889 137.903 87.6153 137.95C87.5418 137.997 87.4816 138.063 87.4406 138.14C87.2192 138.536 86.8974 138.866 86.5077 139.098C86.118 139.33 85.674 139.454 85.2206 139.46C84.7702 139.457 84.3273 139.344 83.9306 139.13C83.8329 139.1 83.7284 139.1 83.6306 139.13C83.5425 139.104 83.4488 139.104 83.3606 139.13C82.9608 139.335 82.5199 139.448 82.0706 139.46C81.3943 139.46 80.7457 139.191 80.2675 138.713C79.7893 138.235 79.5206 137.586 79.5206 136.91C79.5206 136.234 79.7893 135.585 80.2675 135.107C80.7457 134.629 81.3943 134.36 82.0706 134.36C82.2184 134.35 82.3573 134.286 82.4606 134.18L83.2406 135.11C82.8703 135.521 82.667 136.056 82.6706 136.61C82.6779 136.759 82.7403 136.9 82.8457 137.005C82.951 137.11 83.0918 137.173 83.2406 137.18C83.3918 137.18 83.5368 137.12 83.6437 137.013C83.7506 136.906 83.8106 136.761 83.8106 136.61C83.8106 136.284 83.9402 135.971 84.1709 135.74C84.4016 135.51 84.7144 135.38 85.0406 135.38C85.3572 135.385 85.6591 135.514 85.8806 135.74C85.9313 135.797 85.9936 135.844 86.0635 135.875C86.1333 135.907 86.209 135.923 86.2856 135.923C86.3623 135.923 86.438 135.907 86.5078 135.875C86.5776 135.844 86.64 135.797 86.6906 135.74C86.7474 135.692 86.7931 135.632 86.8244 135.565C86.8558 135.498 86.872 135.424 86.872 135.35C86.872 135.276 86.8558 135.202 86.8244 135.135C86.7931 135.068 86.7474 135.008 86.6906 134.96C86.4763 134.74 86.2197 134.565 85.9361 134.446C85.6526 134.328 85.348 134.268 85.0406 134.27C84.7526 134.222 84.4586 134.222 84.1706 134.27L83.0006 132.83C83.1932 132.192 83.5926 131.637 84.1358 131.251C84.679 130.865 85.3351 130.672 86.0006 130.7C86.6429 130.685 87.2746 130.866 87.8108 131.22C88.347 131.574 88.7622 132.083 89.0006 132.68C89.0593 132.821 89.1654 132.938 89.3006 133.01C89.3717 133.041 89.4483 133.056 89.5256 133.056C89.603 133.056 89.6796 133.041 89.7506 133.01C90.481 132.71 91.3002 132.71 92.0306 133.01C92.1459 133.051 92.2709 133.055 92.3888 133.023C92.5068 132.991 92.6121 132.924 92.6906 132.83C92.9179 132.501 93.223 132.232 93.5789 132.049C93.9348 131.866 94.3304 131.774 94.7306 131.78C95.2156 131.78 95.6905 131.918 96.0997 132.179C96.5088 132.439 96.8352 132.811 97.0406 133.25C97.1205 133.397 97.2472 133.513 97.4006 133.58C97.8764 133.715 98.3028 133.985 98.6277 134.358C98.9526 134.731 99.1621 135.19 99.2306 135.68C99.2615 135.834 99.3467 135.973 99.4706 136.07C99.5452 136.107 99.6274 136.126 99.7106 136.126C99.7939 136.126 99.876 136.107 99.9506 136.07H100.251C100.513 136.07 100.765 136.174 100.951 136.36C101.136 136.546 101.241 136.797 101.241 137.06C101.241 137.323 101.136 137.574 100.951 137.76C100.765 137.946 100.513 138.05 100.251 138.05L100.041 138.02Z" fill="#ADB2CA"/>
<path d="M127.461 75.14L109.731 26.24C109.185 24.2451 108.12 22.4306 106.644 20.9814C105.168 19.5322 103.335 18.5 101.331 17.99L32.3306 0.440007C30.8452 0.0575631 29.2989 -0.0275493 27.7806 0.189559C26.2622 0.406666 24.8017 0.921714 23.4831 1.7051C22.1644 2.48849 21.0136 3.52476 20.0967 4.75436C19.1799 5.98396 18.5151 7.38264 18.1406 8.87001L0.560558 77.87C-0.169212 80.8603 0.30562 84.0176 1.88265 86.6609C3.45968 89.3043 6.01252 91.2218 8.99056 92L34.2206 98.36C34.012 100.083 34.4352 101.822 35.4116 103.257C36.3881 104.691 37.8515 105.722 39.5306 106.16L41.9006 106.76C42.4693 106.904 43.054 106.974 43.6406 106.97C45.0744 106.975 46.476 106.545 47.6599 105.736C48.8438 104.927 49.7541 103.778 50.2706 102.44L53.0606 103.16C53.5106 107.09 54.8606 109.64 56.6606 109.76L60.5306 110.03C61.9405 110.03 63.2306 108.59 64.1906 106.04L77.9006 109.55C78.8814 109.796 79.8894 109.917 80.9006 109.91C83.4932 109.905 86.0108 109.039 88.0579 107.448C90.105 105.857 91.5657 103.631 92.2106 101.12L97.0706 81.98L115.821 87.77C116.635 87.9715 117.471 88.0722 118.311 88.07C119.93 88.0701 121.525 87.6791 122.961 86.93C124.995 85.8262 126.568 84.0306 127.393 81.868C128.218 79.7054 128.242 77.3188 127.461 75.14V75.14ZM46.4606 99.14L46.1006 100.52C45.9308 101.181 45.5115 101.751 44.9306 102.11C44.6409 102.285 44.3186 102.399 43.9834 102.446C43.6481 102.492 43.3069 102.47 42.9806 102.38L40.6106 101.78C40.2824 101.707 39.9736 101.565 39.7046 101.363C39.4357 101.161 39.2127 100.905 39.0506 100.61C38.6993 100.024 38.5916 99.3242 38.7506 98.66L39.1106 97.28L41.6906 87.14L49.0406 89L46.4606 99.14ZM56.7206 108.65C55.7606 108.65 54.6806 106.79 54.2306 103.49L56.9906 104.21C57.1814 105.828 57.7241 107.384 58.5806 108.77L56.7206 108.65ZM60.5606 108.92C59.7206 108.92 58.7006 107.33 58.1906 104.51L63.1706 105.8C62.3606 108.08 61.3406 109.07 60.5906 109.01L60.5606 108.92ZM87.7706 99.92C87.5397 100.827 87.132 101.68 86.5709 102.429C86.0098 103.178 85.3064 103.809 84.5009 104.285C83.6953 104.762 82.8036 105.075 81.8769 105.206C80.9502 105.337 80.0067 105.284 79.1006 105.05L51.4106 97.97L53.9906 87.8C54.0672 87.5124 54.086 87.2124 54.0459 86.9175C54.0058 86.6225 53.9075 86.3385 53.7568 86.0818C53.6062 85.825 53.406 85.6008 53.1681 85.422C52.9301 85.2432 52.6591 85.1133 52.3706 85.04L40.6106 82.04C40.3223 81.9647 40.0216 81.9497 39.7273 81.9962C39.433 82.0427 39.1516 82.1495 38.9006 82.31C38.3846 82.6162 38.0081 83.1111 37.8506 83.69L35.2706 93.86L10.0706 87.5C9.16149 87.2693 8.30678 86.8618 7.55525 86.3007C6.80372 85.7397 6.17009 85.036 5.69055 84.23C4.792 82.6454 4.54458 80.7736 5.00056 79.01L22.5806 10.01C22.8082 9.09966 23.2145 8.24365 23.7758 7.49172C24.3372 6.73979 25.0424 6.10695 25.8506 5.63001C27.4785 4.67166 29.4179 4.39153 31.2506 4.85001L100.251 22.43C102.084 22.8968 103.657 24.072 104.624 25.6976C105.592 27.3231 105.874 29.2661 105.411 31.1L87.7706 99.92ZM120.951 83C119.762 83.6264 118.382 83.7868 117.081 83.45L98.2106 77.63L101.211 66.14L115.671 70.49H115.851C115.97 70.4898 116.087 70.4521 116.183 70.3821C116.28 70.3121 116.353 70.2134 116.391 70.1C116.429 69.9529 116.41 69.7968 116.337 69.6631C116.265 69.5295 116.145 69.4283 116.001 69.38L101.421 65L104.001 55.55L111.561 57.83C111.681 57.8347 111.8 57.7989 111.898 57.7282C111.996 57.6575 112.067 57.556 112.101 57.44C112.139 57.2929 112.12 57.1368 112.047 57.0031C111.975 56.8695 111.855 56.7683 111.711 56.72L104.001 54.44L108.531 36.62L123.201 76.67C123.637 77.8206 123.65 79.0887 123.238 80.2482C122.826 81.4076 122.015 82.3829 120.951 83V83Z" fill="#ADB2CA"/>
</svg>
